# xmcd
#
# Track frame offsets:
#	150
#	17440
#	36347
#	53996
#	73130
#	91310
#	107341
#	121322
#	138250
#
# Disc length: 2028 seconds
#
# Revision: 1
# Processed by: cddbd v1.5.2PL0 Copyright (c) Steve Scherf et al.
# Submitted via: audiograbber 1.83.01
#
DISCID=7207ea09
DTITLE=Adam Gregory - Adam Gregory
DYEAR=2006
DGENRE=Country
TTITLE0=Get It On
TTITLE1=Really Love Someone
TTITLE2=Just One Kiss
TTITLE3=Feels Like Rain
TTITLE4=Don't Wanna Love You Anymore
TTITLE5=Boots On
TTITLE6=She's So California
TTITLE7=One Breath
TTITLE8=Don't Send the Invitation (If You Don'y Wanna Party)
EXTD=
EXTT0=
EXTT1=
EXTT2=
EXTT3=
EXTT4=
EXTT5=
EXTT6=
EXTT7=
EXTT8=
PLAYORDER=
